<?xml version="1.0" encoding="UTF-8" standalone="no"?>
<svg
   height="300"
   viewBox="0 0 300 300"
   width="300"
   version="1.1"
   id="svg3"
   sodipodi:docname="icon.svg"
   xml:space="preserve"
   inkscape:version="1.3.2 (091e20e, 2023-11-25, custom)"
   xmlns:inkscape="http://www.inkscape.org/namespaces/inkscape"
   xmlns:sodipodi="http://sodipodi.sourceforge.net/DTD/sodipodi-0.dtd"
   xmlns="http://www.w3.org/2000/svg"
   xmlns:svg="http://www.w3.org/2000/svg"><defs
     id="defs3" /><sodipodi:namedview
     id="namedview3"
     pagecolor="#ffffff"
     bordercolor="#000000"
     borderopacity="0.25"
     inkscape:showpageshadow="2"
     inkscape:pageopacity="0.0"
     inkscape:pagecheckerboard="0"
     inkscape:deskcolor="#d1d1d1"
     inkscape:zoom="1.1338568"
     inkscape:cx="280.89967"
     inkscape:cy="107.15639"
     inkscape:window-width="1920"
     inkscape:window-height="1017"
     inkscape:window-x="-8"
     inkscape:window-y="-8"
     inkscape:window-maximized="1"
     inkscape:current-layer="svg3" /><path
     d="M 114.92661,26.925245 A 36.380151,36.380151 0 0 0 78.546462,63.305401 V 190.63593 H 23.976236 v 54.57021 A 36.380151,36.380151 0 0 0 60.356383,281.5863 H 187.68691 v -18.19007 h -36.38014 v -72.7603 h 36.38014 v -36.38015 h 36.38015 V 99.685551 h 54.57023 V 63.305401 A 36.380151,36.380151 0 0 0 242.25715,26.925245 Z"
     fill="#e0e0e0"
     id="path1"
     style="stroke:none;stroke-width:18.1901;stroke-opacity:1" /><rect
     style="fill:#e0e0e0;fill-opacity:1;stroke:#e0e0e0;stroke-width:27.9491;stroke-linecap:round;stroke-linejoin:round;stroke-miterlimit:15;stroke-opacity:1"
     id="rect3"
     width="82.269707"
     height="135.91234"
     x="128.33655"
     y="131.28555"
     ry="1.087976" /><path
     d="M 114.92661,26.925245 A 36.380151,36.380151 0 0 0 78.546462,63.305401 V 190.63593 H 23.976236 v 54.57021 a 36.380153,36.380153 0 1 0 72.760301,0 V 63.305401 a 18.190077,18.190077 0 0 1 36.380153,0 v 54.570219 h 90.95037 V 99.685551 H 151.30677 V 63.305401 A 36.380151,36.380151 0 0 0 114.92661,26.925245 Z M 42.166314,208.826 h 36.380148 v 36.38014 a 18.190075,18.190075 0 0 1 -36.380148,0 z"
     fill-opacity="0.2"
     id="path2"
     style="stroke-width:18.1901" /><g
     style="clip-rule:evenodd;fill-rule:evenodd;stroke:none;image-rendering:optimizeQuality;shape-rendering:geometricPrecision;text-rendering:geometricPrecision"
     id="g3"
     transform="matrix(0.32449949,-0.06297877,0.06262225,0.32266156,120.23168,129.58441)"><path
       fill="#23292c"
       fill-rule="nonzero"
       d="m 173.829,444.076 a 7.56,7.56 0 0 1 -2.267,1.177 l -159.231,65.79 a 7.595,7.595 0 0 1 -1.611,0.464 l 0.003,0.013 c -6.57,1.126 -11.592,-3.87 -10.596,-10.417 a 7.623,7.623 0 0 1 0.511,-1.826 L 62.89,336.056 c 0.215,-0.564 0.49,-1.088 0.814,-1.567 a 7.634,7.634 0 0 1 1,-1.231 L 302.469,95.493 a 20.48,20.48 0 0 1 -1.178,-6.851 c 0,-11.253 9.121,-20.362 20.36,-20.362 2.32,0 4.64,0.394 6.852,1.179 L 389.108,8.854 C 395.01,2.952 402.782,0 410.546,0 c 7.765,0 15.536,2.952 21.439,8.854 l 67.162,67.162 c 5.902,5.901 8.853,13.673 8.853,21.438 0,7.765 -2.952,15.537 -8.853,21.439 l -60.605,60.605 a 20.512,20.512 0 0 1 1.177,6.851 c 0,5.216 -1.984,10.438 -5.953,14.407 -3.968,3.969 -9.191,5.953 -14.406,5.953 a 20.49,20.49 0 0 1 -6.852,-1.178 L 174.742,443.297 a 7.588,7.588 0 0 1 -0.913,0.779 z M 335.099,73.334 c -0.296,-0.259 -0.598,-0.525 0,0 z"
       id="path1-5"
       style="stroke:none" /><path
       fill="#f49189"
       d="M 405.747,201.51 174.641,432.615 174.626,432.6 75.4,333.377 75.383,333.361 306.491,102.254 c 0.243,0.269 0.493,0.535 0.753,0.794 l 97.708,97.709 c 0.26,0.259 0.525,0.51 0.795,0.753 z"
       id="path2-9"
       style="stroke:none" /><path
       fill="#cf706b"
       d="m 405.747,201.51 -231.106,231.105 -0.015,-0.015 -25.345,-25.345 231.084,-231.086 24.587,24.588 c 0.26,0.259 0.525,0.51 0.795,0.753 z"
       id="path3"
       style="stroke:none" /><path
       fill="#f34758"
       d="m 426.594,14.246 67.162,67.161 c 8.825,8.826 8.824,23.269 0,32.094 l -59.237,59.236 c -0.242,-0.27 -0.493,-0.535 -0.753,-0.795 L 336.058,74.234 a 20.775,20.775 0 0 0 -0.794,-0.753 l 59.235,-59.235 c 8.826,-8.827 23.268,-8.827 32.095,0 z"
       id="path4"
       style="stroke:none" /><path
       fill="#c63b4a"
       d="m 484.441,72.093 9.315,9.314 c 8.825,8.826 8.824,23.269 0,32.094 l -59.237,59.236 c -0.242,-0.27 -0.493,-0.535 -0.753,-0.795 l -24.587,-24.587 z"
       id="path5"
       style="stroke:none" /><path
       fill="#ffffff"
       d="m 330.667,79.625 97.708,97.709 c 4.958,4.959 4.958,13.073 0,18.031 h -10e-4 c -4.957,4.958 -13.073,4.958 -18.03,0 L 312.635,97.657 c -4.957,-4.958 -4.958,-13.073 0,-18.031 v -0.001 c 4.959,-4.958 13.073,-4.958 18.032,0 z"
       id="path6"
       style="stroke:none" /><path
       fill="#b26a64"
       fill-rule="nonzero"
       d="m 330.66,163.296 a 4.5749809,4.5749809 0 1 1 6.47,6.47 L 138.578,368.317 a 4.5749809,4.5749809 0 1 1 -6.47,-6.47 z"
       id="path7"
       style="stroke:none" /><path
       fill="#ece8e3"
       d="m 70.01,338.766 99.224,99.225 -159.792,66.023 c -1.453,0.248 -1.993,-0.37 -1.779,-1.779 z"
       id="path8"
       style="stroke:none" /><path
       fill="#d4c8c1"
       d="m 121.918,390.675 47.316,47.316 -159.792,66.023 c -0.35,0.06 -0.646,0.069 -0.892,0.029 z"
       id="path9"
       style="stroke:none" /><path
       fill="#202e3b"
       d="M 77.663,475.827 9.442,504.014 c -1.453,0.248 -1.993,-0.37 -1.779,-1.779 l 26.618,-69.79 z"
       id="path10"
       style="stroke:none" /><path
       fill="#1a2530"
       d="M 77.663,475.827 9.442,504.014 c -0.35,0.06 -0.646,0.069 -0.892,0.029 l 48.665,-48.664 z"
       id="path11"
       style="stroke:none" /></g></svg>
